<?xml version="1.0" standalone="no"?>
<!DOCTYPE svg PUBLIC "-//W3C//DTD SVG 20010904//EN"
 "http://www.w3.org/TR/2001/REC-SVG-20010904/DTD/svg10.dtd">
<svg version="1.0" xmlns="http://www.w3.org/2000/svg"
 width="1200.000000pt" height="900.000000pt" viewBox="0 0 1200.000000 900.000000"
 preserveAspectRatio="xMidYMid meet">

<g transform="translate(0.000000,900.000000) scale(0.100000,-0.100000)"
fill="#000000" stroke="none">
<path d="M3143 6493 c-27 -115 -24 -359 5 -468 44 -164 177 -387 312 -525 54
-55 92 -85 189 -147 2 -1 -5 -64 -15 -140 -15 -112 -19 -201 -19 -468 1 -371
13 -491 80 -749 183 -718 651 -1114 1389 -1177 270 -23 622 41 780 141 71 45
61 53 -51 43 -175 -15 -468 -10 -563 10 -137 29 -209 73 -184 115 22 36 102
62 306 97 338 59 487 99 747 202 228 90 252 80 180 -74 -100 -214 -115 -284
-106 -486 18 -359 155 -678 404 -938 90 -94 228 -209 250 -209 15 0 100 93
165 180 121 162 208 351 256 553 24 102 26 130 27 322 0 167 -4 224 -18 279
-38 150 -101 274 -220 435 -38 52 -78 113 -88 135 -37 81 -17 201 42 252 13
11 68 46 121 78 264 155 782 557 1098 851 207 193 369 305 441 305 15 0 37 -8
50 -19 45 -36 33 -196 -27 -373 -13 -39 -22 -74 -19 -77 11 -10 75 32 100 65
82 108 119 251 113 432 -8 209 -55 313 -217 484 -219 231 -508 397 -831 477
-155 39 -222 46 -435 45 -188 0 -223 -3 -340 -28 -363 -76 -712 -243 -1049
-503 -40 -30 -80 -53 -93 -53 -14 0 -75 27 -136 59 -142 75 -284 128 -409 152
-165 32 -282 21 -405 -37 -81 -38 -117 -79 -117 -131 0 -30 16 -49 145 -176
207 -203 279 -303 265 -363 -4 -18 -38 -58 -84 -102 -214 -204 -410 -303 -571
-288 -204 19 -370 200 -476 519 -52 159 -52 163 -13 183 187 96 411 400 480
651 30 108 32 352 4 466 -22 91 -22 90 -140 52 -246 -80 -460 -268 -565 -493
l-25 -53 -40 79 c-118 225 -306 384 -550 466 -121 40 -121 40 -143 -51z m4154
-1333 c69 -29 117 -83 132 -148 48 -196 -206 -480 -524 -588 -64 -21 -100 -27
-175 -28 -89 -1 -100 1 -162 32 -196 96 -210 314 -32 496 112 114 294 213 464
251 93 21 230 14 297 -15z"/>
<path d="M8215 3849 c-99 -100 -240 -220 -366 -310 -103 -74 -138 -112 -170
-184 -26 -59 -28 -164 -4 -236 55 -168 195 -367 323 -458 l30 -21 86 81 c141
133 235 293 281 475 47 182 42 366 -12 538 -21 68 -77 196 -86 196 -1 0 -38
-36 -82 -81z"/>
</g>
</svg>
